#!OML:ASF F:\VICON\USERDATA\INSTALL\rory3\rory3.ASF
:FULLY-SPECIFIED
:DEGREES
92
root 0.499598 17.9429 -11.1727 -4.09223 -3.62412 1.51554
lowerback 11.6195 1.02203 -2.23641
upperback 0.549451 1.08192 0.328822
thorax -5.99389 0.596331 1.42755
lowerneck -15.0976 -3.01569 -1.15548
upperneck 22.0523 -4.02704 0.385718
head 9.48418 -1.93087 -0.178819
rclavicle 1.26415e-014 9.93923e-015
rhumerus -28.2681 -16.0731 -79.4268
rradius 25.2513
rwrist 6.24788
rhand -17.177 24.4522
rfingers 7.12502
rthumb 9.06451 -5.33304
lclavicle 1.26415e-014 9.93923e-015
lhumerus -33.4624 3.66915 81.1511
lradius 23.3845
lwrist 3.75678
lhand -26.359 26.0566
lfingers 7.12502
lthumb 0.199 56.0362
rfemur -24.6923 -0.85271 21.5664
rtibia 77.1312
rfoot -0.971557 -3.80881
rtoes 8.84827
lfemur -8.76 -1.03236 -27.2461
ltibia 32.7333
lfoot -17.1525 -1.39788
ltoes 3.49898
93
root 0.494602 17.8996 -11.007 -4.0465 -3.39788 1.51708
lowerback 11.6585 0.867463 -2.23276
upperback 0.534265 0.877841 0.357965
thorax -6.02343 0.496972 1.4898
lowerneck -15.1439 -3.01288 -1.21027
upperneck 22.0901 -3.99743 0.335946
head 9.50597 -1.92703 -0.184347
rclavicle -6.16232e-015 -8.54774e-015
rhumerus -28.4995 -16.2832 -79.2618
rradius 25.0391
rwrist 5.8114
rhand -16.9011 15.5436
rfingers 7.12502
rthumb 9.3308 -14.2299
lclavicle -6.16232e-015 -8.54774e-015
lhumerus -33.2018 3.00745 81.3309
lradius 23.97
lwrist 4.21088
lhand -26.3968 27.0919
lfingers 7.12502
lthumb 0.16246 57.0716
rfemur -25.9265 -0.697925 21.5804
rtibia 76.5734
rfoot -2.58547 -3.58929
rtoes 9.20354
lfemur -8.40466 -1.5485 -27.3146
ltibia 32.0386
lfoot -16.8925 -1.08714
ltoes 1.0452
94
root 0.487782 17.8821 -10.8438 -4.03066 -3.02491 1.53304
lowerback 11.7198 0.650404 -2.26318
upperback 0.591019 0.586003 0.382692
thorax -5.98556 0.354069 1.58174
lowerneck -15.4276 -2.93578 -1.18328
upperneck 22.1931 -3.879 0.271238
head 9.59231 -1.87507 -0.201987
rclavicle 1.48467e-015 -5.96354e-016
rhumerus -28.7006 -16.2648 -79.2307
rradius 25.1797
rwrist 5.14194
rhand -16.6126 13.1438
rfingers 7.12502
rthumb 9.60912 -16.617
lclavicle 1.48467e-015 -5.96354e-016
lhumerus -32.8546 2.4071 81.4367
lradius 24.5561
lwrist 4.56775
lhand -26.4488 27.75
lfingers 7.12502
lthumb 0.112296 57.7297
rfemur -26.9945 -0.659223 21.5601
rtibia 75.7313
rfoot -3.84428 -3.50816
rtoes 8.52448
lfemur -7.6103 -2.06737 -27.3857
ltibia 30.9245
lfoot -16.3382 -1.15503
ltoes 0.914695
95
root 0.48411 17.8868 -10.6765 -4.14459 -2.95968 1.64928
lowerback 11.9934 0.533672 -2.47304
upperback 0.555506 0.399561 0.449296
thorax -6.17022 0.271933 1.801
lowerneck -15.5435 -2.82211 -1.35636
upperneck 22.3899 -3.69428 0.342076
head 9.68743 -1.7946 -0.128871
rclavicle -1.2424e-017 1.19271e-014
rhumerus -29.1056 -16.0312 -79.0578
rradius 25.3052
rwrist 4.68375
rhand -16.3743 14.7287
rfingers 7.12502
rthumb 9.83904 -15.0214
lclavicle -1.2424e-017 1.19271e-014
lhumerus -32.7719 2.08732 81.5286
lradius 25.154
lwrist 4.68156
lhand -26.3726 29.0491
lfingers 7.12502
lthumb 0.18592 59.0288
rfemur -27.781 -0.338288 21.411
rtibia 74.6088
rfoot -5.2219 -3.42399
rtoes 6.06209
lfemur -6.41595 -2.32262 -27.5787
ltibia 29.7964
lfoot -15.6566 -1.25839
ltoes 2.95221
96
root 0.478031 17.8785 -10.5007 -4.13567 -2.93915 1.70311
lowerback 12.0711 0.451569 -2.61205
upperback 0.438438 0.274088 0.539433
thorax -6.333 0.219289 1.99625
lowerneck -15.4583 -2.78796 -1.65564
upperneck 22.5578 -3.60139 0.45776
head 9.73881 -1.76392 -0.0271884
rclavicle 9.3553e-015 9.34288e-015
rhumerus -29.6981 -16.0557 -78.7055
rradius 25.447
rwrist 4.33578
rhand -15.9263 15.8469
rfingers 7.12502
rthumb 10.2713 -13.8823
lclavicle 9.3553e-015 9.34288e-015
lhumerus -32.7301 1.43554 81.763
lradius 25.7258
lwrist 5.11528
lhand -26.0614 29.8897
lfingers 7.12502
lthumb 0.486478 59.8689
rfemur -28.5989 0.00215061 21.3475
rtibia 73.3382
rfoot -6.77035 -3.38695
rtoes 2.82559
lfemur -5.50128 -2.29366 -27.7121
ltibia 29.2571
lfoot -15.6706 -1.14644
ltoes 2.87913
97
root 0.469984 17.8675 -10.3244 -4.02027 -2.78994 1.94486
lowerback 11.8452 0.372443 -2.95603
upperback 0.385836 0.127583 0.531803
thorax -6.25509 0.157077 2.20772
lowerneck -15.1732 -2.78342 -1.58891
upperneck 22.3674 -3.57279 0.28734
head 9.61268 -1.76677 -0.0876343
rclavicle -3.86388e-015 -9.54166e-015
rhumerus -30.1184 -16.3265 -78.3923
rradius 25.4769
rwrist 3.52778
rhand -15.3444 16.6666
rfingers 7.12502
rthumb 10.8325 -13.0341
lclavicle -3.86388e-015 -9.54166e-015
lhumerus -32.4918 0.765351 81.8523
lradius 26.3064
lwrist 5.27322
lhand -25.7834 30.895
lfingers 7.12502
lthumb 0.754907 60.8734
rfemur -29.4891 0.18655 21.0496
rtibia 71.91
rfoot -7.41889 -3.26949
rtoes 2.52724
lfemur -4.8505 -2.33533 -28.0339
ltibia 29.023
lfoot -15.725 -1.17432
ltoes 2.95878
98
root 0.461394 17.8576 -10.1511 -4.01457 -2.51738 2.11179
lowerback 11.7254 0.236023 -3.1837
upperback 0.466278 -0.0798624 0.523707
thorax -6.0899 0.0580556 2.36228
lowerneck -15.18 -2.78846 -1.55851
upperneck 22.1121 -3.56512 0.209764
head 9.52185 -1.77018 -0.116323
rclavicle 6.48535e-015 6.75868e-015
rhumerus -30.4227 -16.7286 -78.0895
rradius 25.4505
rwrist 3.33314
rhand -14.9578 18.5508
rfingers 7.12502
rthumb 11.2054 -11.13
lclavicle 6.48535e-015 6.75868e-015
lhumerus -31.9833 0.334928 81.8247
lradius 26.8114
lwrist 5.12791
lhand -25.7601 32.2785
lfingers 7.12502
lthumb 0.777452 62.2568
rfemur -30.1962 0.252484 20.8015
rtibia 70.2707
rfoot -7.82942 -3.42894
rtoes 3.6083
lfemur -4.05025 -2.32589 -28.2611
ltibia 28.8536
lfoot -16.9345 -1.3483
ltoes 3.12685
99
root 0.453041 17.8501 -9.98107 -3.95732 -2.27161 2.0885
lowerback 11.6866 0.0800901 -3.22027
upperback 0.4794 -0.28606 0.592054
thorax -6.04039 -0.0421251 2.4891
lowerneck -15.1644 -2.76578 -1.54035
upperneck 21.9271 -3.50819 0.0948193
head 9.45086 -1.7558 -0.149807
rclavicle 3.80176e-015 2.38542e-015
rhumerus -30.6963 -16.8714 -77.862
rradius 25.3112
rwrist 3.48534
rhand -15.1192 18.4649
rfingers 7.12502
rthumb 11.0498 -11.2242
lclavicle 3.80176e-015 2.38542e-015
lhumerus -31.5312 0.0379099 81.7901
lradius 27.1268
lwrist 5.36031
lhand -25.6859 32.5475
lfingers 7.12502
lthumb 0.849116 62.5255
rfemur -30.8368 0.394217 20.7666
rtibia 68.4033
rfoot -8.36689 -3.82174
rtoes 3.88537
lfemur -3.25149 -2.29751 -28.2717
ltibia 28.5842
lfoot -17.1525 -1.26228
ltoes 3.07168
100
root 0.445219 17.8455 -9.81488 -3.89951 -1.93543 2.22139
lowerback 11.6252 -0.0504198 -3.41992
upperback 0.542234 -0.482409 0.598612
thorax -5.92474 -0.135939 2.64029
lowerneck -15.1425 -2.7776 -1.57826
upperneck 21.769 -3.53184 0.170367
head 9.39393 -1.76187 -0.118707
rclavicle 3.15571e-015 1.98785e-015
rhumerus -30.8765 -16.8671 -77.76
rradius 25.2895
rwrist 3.23227
rhand -15.1072 17.3119
rfingers 7.12502
rthumb 11.0613 -12.3766
lclavicle 3.15571e-015 1.98785e-015
lhumerus -30.9762 -0.42725 81.8197
lradius 27.2144
lwrist 5.79458
lhand -26.0097 30.7795
lfingers 7.12502
lthumb 0.536358 60.7586
rfemur -31.3651 0.413071 20.5232
rtibia 66.3685
rfoot -8.95158 -4.15275
rtoes 1.91835
lfemur -2.56345 -2.6344 -28.4678
ltibia 28.2259
lfoot -17.3427 -1.24418
ltoes 3.70843
101
root 0.434366 17.8438 -9.64653 -3.86589 -1.70938 2.1754
lowerback 11.5968 -0.129258 -3.40747
upperback 0.615705 -0.582076 0.618896
thorax -5.82394 -0.187989 2.66992
lowerneck -15.2191 -2.81329 -1.54714
upperneck 21.6321 -3.58013 0.14468
head 9.35964 -1.78455 -0.138664
rclavicle 5.96354e-015 1.31198e-014
rhumerus -31.1978 -16.7422 -77.7262
rradius 25.5435
rwrist 2.70743
rhand -16.2982 18.7315
rfingers 7.12502
rthumb 9.91243 -11.0152
lclavicle 5.96354e-015 1.31198e-014
lhumerus -30.4907 -1.34797 81.9446
lradius 27.5092
lwrist 6.70739
lhand -26.3358 28.1165
lfingers 7.12502
lthumb 0.221396 58.0962
rfemur -31.7757 0.506322 20.5041
rtibia 64.1416
rfoot -9.14061 -4.63576
rtoes -0.254667
lfemur -1.82062 -2.93317 -28.451
ltibia 27.7841
lfoot -17.6008 -1.32007
ltoes 5.0863
102
root 0.420897 17.8318 -9.47739 -3.81511 -1.55602 2.26901
lowerback 11.6544 -0.174624 -3.58261
upperback 0.56332 -0.669279 0.60377
thorax -5.90385 -0.223871 2.7686
lowerneck -15.1211 -2.8075 -1.47376
upperneck 21.5146 -3.58865 0.134352
head 9.29874 -1.78447 -0.152772
rclavicle 1.23122e-014 3.97569e-016
rhumerus -31.7077 -16.804 -77.585
rradius 25.824
rwrist 2.80403
rhand -18.1088 21.5506
rfingers 7.12502
rthumb 8.16529 -8.27161
lclavicle 1.23122e-014 3.97569e-016
lhumerus -30.2906 -2.08109 81.9874
lradius 28.1022
lwrist 7.56603
lhand -26.2172 26.9932
lfingers 7.12502
lthumb 0.336007 56.9727
rfemur -32.1925 0.716499 20.3441
rtibia 61.8003
rfoot -9.03238 -5.10042
rtoes -0.391601
lfemur -1.06006 -2.8835 -28.5526
ltibia 27.385
lfoot -18.0039 -1.29859
ltoes 5.05427
